<?xml version="1.0" encoding="UTF-8" standalone="no"?>
<svg width="192px" height="96px" viewBox="0 0 192 96" version="1.1" xmlns="http://www.w3.org/2000/svg" xmlns:xlink="http://www.w3.org/1999/xlink">
    <!-- Generator: Sketch 41.2 (35397) - http://www.bohemiancoding.com/sketch -->
    <title>Artboard</title>
    <desc>Created with Sketch.</desc>
    <defs></defs>
    <g id="Offers-Page-changes" stroke="none" stroke-width="1" fill="none" fill-rule="evenodd">
        <g id="Artboard">
            <g id="other-icon-copy" transform="translate(144.000000, 0.000000)">
                <rect id="bounds" x="0" y="0" width="48" height="48"></rect>
                <path d="M25.3944319,20.379762 C25.3944319,17.8673385 28.7651035,18.332798 28.7651035,15.2173929 C28.7651035,12.900674 26.8948898,11.7 24.7567373,11.7 C23.0097756,11.7 21.6432871,12.5039755 20.8930582,13.6358884 L22.1255772,14.762512 C22.7150428,14.0378762 23.6046,13.5724167 24.6763556,13.5724167 C25.876722,13.5724167 26.6751799,14.1595304 26.6751799,15.1962357 C26.6751799,17.2273317 23.5992412,16.5079852 23.5992412,20.379762 L25.3944319,20.379762 Z M23.191974,23.019129 C23.191974,23.7384756 23.7760809,24.3097213 24.4995159,24.3097213 C25.222951,24.3097213 25.8070578,23.7384756 25.8070578,23.019129 C25.8070578,22.3050718 25.222951,21.7285368 24.4995159,21.7285368 C23.7760809,21.7285368 23.191974,22.3050718 23.191974,23.019129 L23.191974,23.019129 Z" id="?" fill="#333333"></path>
                <path d="M29.876145,25.8262927 C33.1749098,25.8262927 34.7953801,24.2367131 34.7953801,20.9875021 L34.7953801,14.4958147 C34.7953801,11.2464566 33.1805733,9.65702415 29.876145,9.65702415 L19.499344,9.65702415 C16.2005792,9.65702415 14.5801089,11.2466037 14.5801089,14.4958147 L14.5801089,20.9875021 C14.5801089,23.8955637 15.9769875,25.2662072 18.7964361,25.7414584 L18.6980345,29.5011264 L25.3740654,25.8262927 L29.876145,25.8262927 L29.876145,25.8262927 Z M25.3222154,28.2572674 L26.7665664,27.8868739 L20.5900097,31.2867711 L18.6951943,32.3297758 C17.2399077,33.130841 16.0952108,32.4412183 16.1385283,30.786168 L16.1935521,28.6838508 L16.2845917,25.2054663 L19.2366982,25.2799203 L18.7369258,28.1369648 C14.6720749,27.4517864 12.3827392,24.9538796 12.3827392,20.8816362 L12.3827392,14.8756311 C12.3827392,10.2709273 15.2016572,7.5 19.8870174,7.5 L29.4874672,7.5 C34.1767059,7.5 36.9917454,10.2694499 36.9917454,14.8756311 L36.9917454,20.8816362 C36.9917454,25.4863401 34.1728274,28.2572674 29.4874672,28.2572674 L25.3222154,28.2572674 Z" id="Shape" fill="#333333"></path>
            </g>
            <g id="other-icon-copy-2" transform="translate(144.000000, 48.000000)">
                <rect id="bounds" x="0" y="0" width="48" height="48"></rect>
                <path d="M25.3944319,20.379762 C25.3944319,17.8673385 28.7651035,18.332798 28.7651035,15.2173929 C28.7651035,12.900674 26.8948898,11.7 24.7567373,11.7 C23.0097756,11.7 21.6432871,12.5039755 20.8930582,13.6358884 L22.1255772,14.762512 C22.7150428,14.0378762 23.6046,13.5724167 24.6763556,13.5724167 C25.876722,13.5724167 26.6751799,14.1595304 26.6751799,15.1962357 C26.6751799,17.2273317 23.5992412,16.5079852 23.5992412,20.379762 L25.3944319,20.379762 Z M23.191974,23.019129 C23.191974,23.7384756 23.7760809,24.3097213 24.4995159,24.3097213 C25.222951,24.3097213 25.8070578,23.7384756 25.8070578,23.019129 C25.8070578,22.3050718 25.222951,21.7285368 24.4995159,21.7285368 C23.7760809,21.7285368 23.191974,22.3050718 23.191974,23.019129 L23.191974,23.019129 Z" id="?" fill="#FFFFFF"></path>
                <path d="M29.876145,25.8262927 C33.1749098,25.8262927 34.7953801,24.2367131 34.7953801,20.9875021 L34.7953801,14.4958147 C34.7953801,11.2464566 33.1805733,9.65702415 29.876145,9.65702415 L19.499344,9.65702415 C16.2005792,9.65702415 14.5801089,11.2466037 14.5801089,14.4958147 L14.5801089,20.9875021 C14.5801089,23.8955637 15.9769875,25.2662072 18.7964361,25.7414584 L18.6980345,29.5011264 L25.3740654,25.8262927 L29.876145,25.8262927 L29.876145,25.8262927 Z M25.3222154,28.2572674 L26.7665664,27.8868739 L20.5900097,31.2867711 L18.6951943,32.3297758 C17.2399077,33.130841 16.0952108,32.4412183 16.1385283,30.786168 L16.1935521,28.6838508 L16.2845917,25.2054663 L19.2366982,25.2799203 L18.7369258,28.1369648 C14.6720749,27.4517864 12.3827392,24.9538796 12.3827392,20.8816362 L12.3827392,14.8756311 C12.3827392,10.2709273 15.2016572,7.5 19.8870174,7.5 L29.4874672,7.5 C34.1767059,7.5 36.9917454,10.2694499 36.9917454,14.8756311 L36.9917454,20.8816362 C36.9917454,25.4863401 34.1728274,28.2572674 29.4874672,28.2572674 L25.3222154,28.2572674 Z" id="Shape" fill="#FFFFFF"></path>
            </g>
            <g id="homework-icon-copy">
                <rect id="bounds" x="0" y="0" width="48" height="48"></rect>
                <path d="M13.8930582,16.0985107 C13.8930582,15.5468701 14.3083828,14.914935 14.8406228,14.8150686 C14.8406228,14.8150686 14.6700041,14.3779159 18.2653488,15.099677 C21.8606935,15.821438 24.6491557,17.549677 24.6491557,17.549677 L24.6491557,31.2508432 C24.6491557,31.8024839 24.2173766,32.1177722 23.6822954,31.9582299 C23.6822954,31.9582299 21.3576864,31.2225469 18.6655109,30.6533127 C15.9733353,30.0840785 14.8760997,29.9487615 14.8760997,29.9487615 C14.3331808,29.8664244 13.8930582,29.3436157 13.8930582,28.8008432 L13.8930582,16.0985107 Z" id="Rectangle-29" stroke="#333333" stroke-width="2" stroke-linecap="round"></path>
                <path d="M24.6491557,16.0985107 C24.6491557,15.5468701 25.0644803,14.914935 25.5967204,14.8150686 C25.5967204,14.8150686 25.4261017,14.3779159 29.0214464,15.099677 C32.616791,15.821438 35.4052533,17.549677 35.4052533,17.549677 L35.4052533,31.2508432 C35.4052533,31.8024839 34.9802145,32.1201022 34.4388075,31.9580726 C34.4388075,31.9580726 31.4948559,31.0383184 28.8026803,30.4690842 C26.1105047,29.89985 25.6356452,29.9099676 25.6356452,29.9099676 C25.0908221,29.8490558 24.6491557,29.3436157 24.6491557,28.8008432 L24.6491557,16.0985107 Z" id="Rectangle-29-Copy" stroke="#333333" stroke-width="2" stroke-linecap="round" transform="translate(30.027205, 23.342142) scale(-1, 1) translate(-30.027205, -23.342142) "></path>
                <path d="M10.5834897,17.15 C10.5834897,17.15 10.5834897,17.595841 10.5834897,18.1402246 L10.5834897,31.6137506 C10.5834897,32.1606365 11.0160259,32.6766713 11.5673394,32.7705669 C11.5673394,32.7705669 17.0606412,33.6798088 19.0404229,34.232324 C21.0089043,34.7816855 23.8101165,35.7704274 23.8101165,35.7704274 C24.3357564,35.9526272 25.1862374,35.9500535 25.7045936,35.7680837 C25.7045936,35.7680837 28.2943307,34.8400319 30.3344465,34.232324 C32.218157,33.6712059 37.8096326,32.7669394 37.8096326,32.7669394 C38.3519482,32.6769367 38.7915818,32.1581342 38.7915818,31.6137506 L38.7915818,17.15" id="Path-832" stroke="#333333" stroke-width="2" stroke-linecap="round"></path>
            </g>
            <g id="homework-icon-copy-2" transform="translate(0.000000, 48.000000)">
                <rect id="bounds" x="0" y="0" width="48" height="48"></rect>
                <path d="M13.8930582,16.0985107 C13.8930582,15.5468701 14.3083828,14.914935 14.8406228,14.8150686 C14.8406228,14.8150686 14.6700041,14.3779159 18.2653488,15.099677 C21.8606935,15.821438 24.6491557,17.549677 24.6491557,17.549677 L24.6491557,31.2508432 C24.6491557,31.8024839 24.2173766,32.1177722 23.6822954,31.9582299 C23.6822954,31.9582299 21.3576864,31.2225469 18.6655109,30.6533127 C15.9733353,30.0840785 14.8760997,29.9487615 14.8760997,29.9487615 C14.3331808,29.8664244 13.8930582,29.3436157 13.8930582,28.8008432 L13.8930582,16.0985107 Z" id="Rectangle-29" stroke="#FFFFFF" stroke-width="2" stroke-linecap="round"></path>
                <path d="M24.6491557,16.0985107 C24.6491557,15.5468701 25.0644803,14.914935 25.5967204,14.8150686 C25.5967204,14.8150686 25.4261017,14.3779159 29.0214464,15.099677 C32.616791,15.821438 35.4052533,17.549677 35.4052533,17.549677 L35.4052533,31.2508432 C35.4052533,31.8024839 34.9802145,32.1201022 34.4388075,31.9580726 C34.4388075,31.9580726 31.4948559,31.0383184 28.8026803,30.4690842 C26.1105047,29.89985 25.6356452,29.9099676 25.6356452,29.9099676 C25.0908221,29.8490558 24.6491557,29.3436157 24.6491557,28.8008432 L24.6491557,16.0985107 Z" id="Rectangle-29-Copy" stroke="#FFFFFF" stroke-width="2" stroke-linecap="round" transform="translate(30.027205, 23.342142) scale(-1, 1) translate(-30.027205, -23.342142) "></path>
                <path d="M10.5834897,17.15 C10.5834897,17.15 10.5834897,17.595841 10.5834897,18.1402246 L10.5834897,31.6137506 C10.5834897,32.1606365 11.0160259,32.6766713 11.5673394,32.7705669 C11.5673394,32.7705669 17.0606412,33.6798088 19.0404229,34.232324 C21.0089043,34.7816855 23.8101165,35.7704274 23.8101165,35.7704274 C24.3357564,35.9526272 25.1862374,35.9500535 25.7045936,35.7680837 C25.7045936,35.7680837 28.2943307,34.8400319 30.3344465,34.232324 C32.218157,33.6712059 37.8096326,32.7669394 37.8096326,32.7669394 C38.3519482,32.6769367 38.7915818,32.1581342 38.7915818,31.6137506 L38.7915818,17.15" id="Path-832" stroke="#FFFFFF" stroke-width="2" stroke-linecap="round"></path>
            </g>
            <g id="exam-icon-copy" transform="translate(48.000000, 0.000000)">
                <rect id="bounds" x="0" y="0" width="48" height="48"></rect>
                <path d="M35.2847944,34.3168893 C34.8557712,32.590622 33.722774,30.7815318 33.4942921,29.578758 C33.2658102,28.3759843 34.1408418,26.0870812 35.8163756,23.0049735 C37.2634275,20.2987326 37.7203913,18.381812 36.6922228,14.6983174 C35.6259741,11.0148228 33.2269143,8.75962202 25.5727714,9.43618225 C17.8043875,10.1127425 17.5759056,12.7062234 16.89046,14.4352106 C16.2050144,16.2017845 16.5440361,19.7405662 16.5440361,20.4171265 C16.5440361,21.0936867 15.010064,23.0915558 14.8958231,23.9936361 C14.7815821,24.8581297 16.8142994,24.3956807 16.8142994,24.8467208 C16.8142994,25.297761 16.8142993,25.8683615 16.8142993,26.9008952 C16.8142993,27.3229596 17.150121,27.9078045 17.3344623,28.0838501 C17.6010914,28.3384806 17.4020054,29.2898654 17.3344623,29.5787583 C17.2202213,30.0673851 17.0427813,30.2592027 17.8424678,30.7102428 C18.6421544,31.161283 20.3938488,31.1988696 21.993222,30.8230028 C23.5545148,30.4471361 23.5164345,29.9585092 24.2780407,30.3719627 C25.039647,30.8230028 24.3542014,34.4313241 24.1637998,35.145471" id="Shape" stroke="#333333" stroke-width="2.5" stroke-linecap="round" transform="translate(26.069904, 22.231069) scale(-1, 1) translate(-26.069904, -22.231069) "></path>
                <path d="M21.4258912,18.5206113 L23.2638689,20.5547414 C23.6354781,20.9660093 24.2675448,21.0125633 24.6858155,20.6498906 L29.4911093,16.4833333" id="Path-876" stroke="#333333" stroke-width="2.5" stroke-linecap="round"></path>
            </g>
            <g id="exam-icon-copy-2" transform="translate(48.000000, 48.000000)">
                <rect id="bounds" x="0" y="0" width="48" height="48"></rect>
                <path d="M35.2847944,34.3168893 C34.8557712,32.590622 33.722774,30.7815318 33.4942921,29.578758 C33.2658102,28.3759843 34.1408418,26.0870812 35.8163756,23.0049735 C37.2634275,20.2987326 37.7203913,18.381812 36.6922228,14.6983174 C35.6259741,11.0148228 33.2269143,8.75962202 25.5727714,9.43618225 C17.8043875,10.1127425 17.5759056,12.7062234 16.89046,14.4352106 C16.2050144,16.2017845 16.5440361,19.7405662 16.5440361,20.4171265 C16.5440361,21.0936867 15.010064,23.0915558 14.8958231,23.9936361 C14.7815821,24.8581297 16.8142994,24.3956807 16.8142994,24.8467208 C16.8142994,25.297761 16.8142993,25.8683615 16.8142993,26.9008952 C16.8142993,27.3229596 17.150121,27.9078045 17.3344623,28.0838501 C17.6010914,28.3384806 17.4020054,29.2898654 17.3344623,29.5787583 C17.2202213,30.0673851 17.0427813,30.2592027 17.8424678,30.7102428 C18.6421544,31.161283 20.3938488,31.1988696 21.993222,30.8230028 C23.5545148,30.4471361 23.5164345,29.9585092 24.2780407,30.3719627 C25.039647,30.8230028 24.3542014,34.4313241 24.1637998,35.145471" id="Shape" stroke="#FFFFFF" stroke-width="2.5" stroke-linecap="round" transform="translate(26.069904, 22.231069) scale(-1, 1) translate(-26.069904, -22.231069) "></path>
                <path d="M21.4258912,18.5206113 L23.2638689,20.5547414 C23.6354781,20.9660093 24.2675448,21.0125633 24.6858155,20.6498906 L29.4911093,16.4833333" id="Path-876" stroke="#FFFFFF" stroke-width="2.5" stroke-linecap="round"></path>
            </g>
            <g id="paper-icon-copy" transform="translate(96.000000, 0.000000)">
                <rect id="bounds" x="0" y="0" width="48" height="48"></rect>
                <path d="M36.0302502,23.6655535 L36.0302502,32.8182218 C36.0302502,34.0523168 35.0173005,35.0514069 33.7657261,35.0514069 L16.3974921,35.0514069 C15.1466875,35.0514069 14.132968,34.0541079 14.132968,32.8182218 L14.132968,10.2969297 C14.132968,9.06283467 15.1459178,8.06374459 16.3974921,8.06374459 L33.7657261,8.06374459 C35.0165308,8.06374459 36.0302502,9.06104357 36.0302502,10.2969297 L36.0302502,18.5817641 L33.8664872,20.7996212 L33.8664872,10.2969297 C33.8664872,10.2421385 33.8231048,10.1994589 33.7657261,10.1994589 L16.3974921,10.1994589 C16.340578,10.1994589 16.2967311,10.2427059 16.2967311,10.2969297 L16.2967311,32.8182218 C16.2967311,32.873013 16.3401134,32.9156926 16.3974921,32.9156926 L33.7657261,32.9156926 C33.8226402,32.9156926 33.8664872,32.8724456 33.8664872,32.8182218 L33.8664872,25.4961657 L36.0302502,23.6655535 Z" id="Shape" fill="#333333"></path>
                <ellipse id="Oval-72" fill="#333333" cx="18.6217928" cy="14.7621212" rx="1.37694013" ry="1.35909091"></ellipse>
                <ellipse id="Oval-72" fill="#333333" cx="18.6217928" cy="21.7517316" rx="1.37694013" ry="1.35909091"></ellipse>
                <ellipse id="Oval-72" fill="#333333" cx="18.6217928" cy="28.741342" rx="1.37694013" ry="1.35909091"></ellipse>
                <rect id="Rectangle-86" fill="#333333" x="22.0679851" y="14.3059446" width="8.45834653" height="1.95493458" rx="0.97746729"></rect>
                <rect id="Rectangle-86" fill="#333333" x="22.0679851" y="18.2158137" width="5.70446627" height="1.95493458" rx="0.97746729"></rect>
                <path d="M32.6806551,18.9035014 C32.6806551,18.9945318 32.6312633,19.0681854 32.5706009,19.0681854 L34.1049057,19.0681854 C34.0452112,19.0681854 33.9948515,18.9935123 33.9948515,18.9035014 L33.9948515,28.3877053 C33.9948515,28.2966749 34.0442432,28.2230213 34.1049057,28.2230213 L32.5706009,28.2230213 C32.6302954,28.2230213 32.6806551,28.2976944 32.6806551,28.3877053 L32.6806551,18.9035014 L32.6806551,18.9035014 Z M31.0463492,28.1818779 C31.0463492,28.6772591 31.4794957,29.0740661 32.0142331,29.0740661 L34.7288753,29.0740661 C35.2633671,29.0740661 35.6967591,28.6747802 35.6967591,28.1818779 L35.6967591,18.8411246 C35.6967591,18.3457434 35.2636126,17.9489364 34.7288753,17.9489364 L32.0142331,17.9489364 C31.4797413,17.9489364 31.0463492,18.3482224 31.0463492,18.8411246 L31.0463492,28.1818779 Z" id="Shape" fill="#333333" transform="translate(33.371554, 23.511501) rotate(-315.000000) translate(-33.371554, -23.511501) "></path>
                <path d="M37.3338105,17.9736111 C37.3338105,18.1258314 37.2754711,18.2471698 37.2048847,18.2471698 L39.0022866,18.2471698 C38.9305705,18.2471698 38.8733607,18.1275931 38.8733607,17.9736111 L38.8733607,20.664611 L39.2582483,19.8587973 L36.948923,19.8587973 L37.3338105,20.664611 L37.3338105,17.9736111 L37.3338105,17.9736111 Z M35.7686886,17.9885914 L35.7686886,19.9040659 L35.7686886,20.4776503 L36.3499898,20.4776503 L39.8377973,20.4776503 L40.4190985,20.4776503 L40.4190985,19.9040659 L40.4190985,17.9885914 C40.4190985,17.4642042 39.9845547,17.0361438 39.4512146,17.0361438 L36.7365725,17.0361438 C36.2028028,17.0361438 35.7686886,17.4616792 35.7686886,17.9885914 L35.7686886,17.9885914 Z" id="Shape" fill="#333333" transform="translate(38.093894, 18.850377) rotate(-315.000000) translate(-38.093894, -18.850377) "></path>
                <path d="M29.3837199,29.6791363 L30.9808809,26.8774321 C31.1805073,26.5272519 30.9240491,26.0945687 30.5168654,26.0945687 L27.3225434,26.0945687 C26.9153597,26.0945687 26.6589015,26.5272519 26.8585279,26.8774321 L28.4556889,29.6791363 C28.6592226,30.0361706 29.1801862,30.0361706 29.3837199,29.6791363 L29.3837199,29.6791363 Z M28.4556889,29.1640487 L29.3837199,29.1640487 L27.7865588,26.3623445 L27.3225434,27.1452078 L30.5168654,27.1452078 L30.0528499,26.3623445 L28.4556889,29.1640487 L28.4556889,29.1640487 Z" id="Shape" fill="#333333" transform="translate(28.919704, 28.020740) rotate(-315.000000) translate(-28.919704, -28.020740) "></path>
            </g>
            <g id="paper-icon-copy-2" transform="translate(96.000000, 48.000000)">
                <rect id="bounds" x="0" y="0" width="48" height="48"></rect>
                <path d="M36.0302502,23.6655535 L36.0302502,32.8182218 C36.0302502,34.0523168 35.0173005,35.0514069 33.7657261,35.0514069 L16.3974921,35.0514069 C15.1466875,35.0514069 14.132968,34.0541079 14.132968,32.8182218 L14.132968,10.2969297 C14.132968,9.06283467 15.1459178,8.06374459 16.3974921,8.06374459 L33.7657261,8.06374459 C35.0165308,8.06374459 36.0302502,9.06104357 36.0302502,10.2969297 L36.0302502,18.5817641 L33.8664872,20.7996212 L33.8664872,10.2969297 C33.8664872,10.2421385 33.8231048,10.1994589 33.7657261,10.1994589 L16.3974921,10.1994589 C16.340578,10.1994589 16.2967311,10.2427059 16.2967311,10.2969297 L16.2967311,32.8182218 C16.2967311,32.873013 16.3401134,32.9156926 16.3974921,32.9156926 L33.7657261,32.9156926 C33.8226402,32.9156926 33.8664872,32.8724456 33.8664872,32.8182218 L33.8664872,25.4961657 L36.0302502,23.6655535 Z" id="Shape" fill="#FFFFFF"></path>
                <ellipse id="Oval-72" fill="#FFFFFF" cx="18.6217928" cy="14.7621212" rx="1.37694013" ry="1.35909091"></ellipse>
                <ellipse id="Oval-72" fill="#FFFFFF" cx="18.6217928" cy="21.7517316" rx="1.37694013" ry="1.35909091"></ellipse>
                <ellipse id="Oval-72" fill="#FFFFFF" cx="18.6217928" cy="28.741342" rx="1.37694013" ry="1.35909091"></ellipse>
                <rect id="Rectangle-86" fill="#FFFFFF" x="22.0679851" y="14.3059446" width="8.45834653" height="1.95493458" rx="0.97746729"></rect>
                <rect id="Rectangle-86" fill="#FFFFFF" x="22.0679851" y="18.2158137" width="5.70446627" height="1.95493458" rx="0.97746729"></rect>
                <path d="M32.6806551,18.9035014 C32.6806551,18.9945318 32.6312633,19.0681854 32.5706009,19.0681854 L34.1049057,19.0681854 C34.0452112,19.0681854 33.9948515,18.9935123 33.9948515,18.9035014 L33.9948515,28.3877053 C33.9948515,28.2966749 34.0442432,28.2230213 34.1049057,28.2230213 L32.5706009,28.2230213 C32.6302954,28.2230213 32.6806551,28.2976944 32.6806551,28.3877053 L32.6806551,18.9035014 L32.6806551,18.9035014 Z M31.0463492,28.1818779 C31.0463492,28.6772591 31.4794957,29.0740661 32.0142331,29.0740661 L34.7288753,29.0740661 C35.2633671,29.0740661 35.6967591,28.6747802 35.6967591,28.1818779 L35.6967591,18.8411246 C35.6967591,18.3457434 35.2636126,17.9489364 34.7288753,17.9489364 L32.0142331,17.9489364 C31.4797413,17.9489364 31.0463492,18.3482224 31.0463492,18.8411246 L31.0463492,28.1818779 Z" id="Shape" fill="#FFFFFF" transform="translate(33.371554, 23.511501) rotate(-315.000000) translate(-33.371554, -23.511501) "></path>
                <path d="M37.3338105,17.9736111 C37.3338105,18.1258314 37.2754711,18.2471698 37.2048847,18.2471698 L39.0022866,18.2471698 C38.9305705,18.2471698 38.8733607,18.1275931 38.8733607,17.9736111 L38.8733607,20.664611 L39.2582483,19.8587973 L36.948923,19.8587973 L37.3338105,20.664611 L37.3338105,17.9736111 L37.3338105,17.9736111 Z M35.7686886,17.9885914 L35.7686886,19.9040659 L35.7686886,20.4776503 L36.3499898,20.4776503 L39.8377973,20.4776503 L40.4190985,20.4776503 L40.4190985,19.9040659 L40.4190985,17.9885914 C40.4190985,17.4642042 39.9845547,17.0361438 39.4512146,17.0361438 L36.7365725,17.0361438 C36.2028028,17.0361438 35.7686886,17.4616792 35.7686886,17.9885914 L35.7686886,17.9885914 Z" id="Shape" fill="#FFFFFF" transform="translate(38.093894, 18.850377) rotate(-315.000000) translate(-38.093894, -18.850377) "></path>
                <path d="M29.3837199,29.6791363 L30.9808809,26.8774321 C31.1805073,26.5272519 30.9240491,26.0945687 30.5168654,26.0945687 L27.3225434,26.0945687 C26.9153597,26.0945687 26.6589015,26.5272519 26.8585279,26.8774321 L28.4556889,29.6791363 C28.6592226,30.0361706 29.1801862,30.0361706 29.3837199,29.6791363 L29.3837199,29.6791363 Z M28.4556889,29.1640487 L29.3837199,29.1640487 L27.7865588,26.3623445 L27.3225434,27.1452078 L30.5168654,27.1452078 L30.0528499,26.3623445 L28.4556889,29.1640487 L28.4556889,29.1640487 Z" id="Shape" fill="#FFFFFF" transform="translate(28.919704, 28.020740) rotate(-315.000000) translate(-28.919704, -28.020740) "></path>
            </g>
        </g>
    </g>
</svg>