<?xml version="1.0" encoding="UTF-8" standalone="no"?>
<svg width="17px" height="17px" viewBox="0 0 17 17" version="1.1" xmlns="http://www.w3.org/2000/svg" xmlns:xlink="http://www.w3.org/1999/xlink">
    <!-- Generator: Sketch 41.2 (35397) - http://www.bohemiancoding.com/sketch -->
    <title>chegg-attach</title>
    <desc>Created with Sketch.</desc>
    <defs></defs>
    <g id="Offers-Page-changes" stroke="none" stroke-width="1" fill="none" fill-rule="evenodd">
        <g id="Student-Request-Form-(desktop)-Copy-12" transform="translate(-450.000000, -836.000000)" fill="#000000">
            <g id="chegg-attach" transform="translate(458.441125, 843.941125) scale(1, -1) rotate(45.000000) translate(-458.441125, -843.941125) translate(453.941125, 834.941125)">
                <path d="M7.875,2.25 L7.875,13.5 C7.875,15.35625 6.35625,16.875 4.5,16.875 C2.64375,16.875 1.125,15.35625 1.125,13.5 L1.125,3.375 L1.125,3.375 L1.125,3.346875 C1.125,2.109375 2.1375,1.096875 3.375,1.096875 C4.6125,1.096875 5.625,2.109375 5.625,3.346875 L5.625,3.375 L5.625,3.375 L5.625,13.5 C5.625,14.11875 5.11875,14.625 4.5,14.625 C3.88125,14.625 3.375,14.11875 3.375,13.5 L3.375,4.5 L2.25,4.5 L2.25,13.5 L2.25,13.5 C2.278125,14.7375 3.2625,15.721875 4.5,15.721875 C5.7375,15.721875 6.721875,14.7375 6.75,13.5 L6.75,13.5 L6.75,3.375 C6.75,1.51875 5.23125,0 3.375,0 C1.51875,0 0,1.51875 0,3.375 L0,13.5 L0,13.5 C0.028125,15.975 2.025,17.971875 4.5,17.971875 C6.975,17.971875 8.971875,15.975 9,13.5 L9,13.5 L9,2.25 L7.875,2.25 Z" id="Shape"></path>
            </g>
        </g>
    </g>
</svg>