<?xml version="1.0" encoding="UTF-8" standalone="no"?>
<svg width="434px" height="258px" viewBox="0 0 434 258" version="1.1" xmlns="http://www.w3.org/2000/svg" xmlns:xlink="http://www.w3.org/1999/xlink">
    <!-- Generator: Sketch 41.2 (35397) - http://www.bohemiancoding.com/sketch -->
    <title>Live lesson illo</title>
    <desc>Created with Sketch.</desc>
    <defs>
        <rect id="path-1" x="0" y="0" width="116.411458" height="68.9427083"></rect>
        <rect id="path-3" x="0.138324005" y="0.0461080017" width="92.2160033" height="92.2160033"></rect>
    </defs>
    <g id="Offers-Page-changes" stroke="none" stroke-width="1" fill="none" fill-rule="evenodd">
        <g id="Student-Request-Form-(desktop)-Copy-10" transform="translate(-230.000000, -1209.000000)">
            <g id="What-type-of-lesson...?" transform="translate(230.000000, 1101.000000)">
                <g id="tab-content-:live" transform="translate(0.000000, 108.000000)">
                    <g id="Live-lesson-illo">
                        <rect id="Rectangle-10" fill="#FFCC95" x="22.6041667" y="0" width="388.791667" height="253.166667" rx="12"></rect>
                        <rect id="Rectangle-10" fill="#FF9D00" x="0" y="241.864583" width="434" height="15.8229167" rx="3"></rect>
                        <rect id="Rectangle-6" fill="#FFFFFF" x="35.0364583" y="13.5625" width="361.666667" height="220.390625"></rect>
                        <g id="video-chat" transform="translate(48.598958, 152.578125)">
                            <mask id="mask-2" fill="white">
                                <use xlink:href="#path-1"></use>
                            </mask>
                            <use id="Rectangle-12" fill="#FF9D00" xlink:href="#path-1"></use>
                            <g id="layeredCheggAvatar" mask="url(#mask-2)">
                                <g transform="translate(10.171875, -18.083333)" id="Layer_1">
                                    <g>
                                        <g id="Group">
                                            <rect id="Rectangle-path" fill="#FF9D00" x="0.138324005" y="0.0461080017" width="92.2160033" height="92.2160033"></rect>
                                            <g id="Clipped">
                                                <mask id="mask-4" fill="white">
                                                    <use xlink:href="#path-3"></use>
                                                </mask>
                                                <g id="SVGID_1_"></g>
                                                <g id="Group" mask="url(#mask-4)">
                                                    <g transform="translate(2.305400, 11.527000)">
                                                        <path d="M62.7529903,25.5438329 C62.7529903,25.5438329 62.5224502,22.8695688 62.7529903,20.8869248 C62.9835303,18.9042807 65.1506063,15.4000726 64.5050943,14.5240205 C63.8595823,13.6479685 60.3092662,9.91322036 60.1248342,8.57608831 C59.9404022,7.23895626 58.7877021,2.62815609 58.1421901,1.75210406 C57.4966781,0.876052032 57.9116501,3.50420813 56.805058,4.84134017 C55.698466,6.17847222 55.283494,2.7203721 53.9463619,1.56767206 C52.6092299,0.414972015 51.2720978,0 51.2720978,0 C51.2720978,0 52.3786899,1.98264407 52.3786899,3.08923611 L52.3786899,4.19582815 C52.3786899,4.19582815 46.8918377,1.79821206 45.7852456,1.79821206 C44.6786536,1.79821206 42.9726575,2.6742641 42.9726575,2.6742641 C42.9726575,2.6742641 41.6355255,2.02875207 40.5750415,2.21318408 C39.4684494,2.44372409 35.3187293,4.84134017 34.6271092,5.94793221 C33.9815972,7.05452425 31.5378731,8.16111629 30.6618211,8.16111629 C29.7857691,8.16111629 26.696533,7.74614428 26.696533,7.74614428 C26.696533,7.74614428 26.0510209,9.49824834 26.696533,10.8353804 C27.342045,12.1725124 27.803125,14.1090485 27.803125,14.1090485 C27.803125,14.1090485 25.0366449,14.6162365 24.5294569,12.5874845 C24.0683769,10.6048404 25.5899409,16.5066646 25.5899409,16.5066646 C25.5899409,16.5066646 26.696533,17.1521766 26.465993,18.9042807 C26.2354529,20.6563847 26.465993,21.9935168 26.696533,23.5150808 C26.927073,25.0366449 27.157613,27.526477 27.157613,27.526477 L30.2468491,35.6414853 L59.0182421,35.6414853 L62.7529903,25.5438329 Z" id="Shape" stroke="#F27E2D" stroke-width="1" fill="#F27D00" fill-rule="evenodd"></path>
                                                        <g id="Group" stroke="none" stroke-width="1" fill="none" fill-rule="evenodd" transform="translate(0.000000, 59.479322)">
                                                            <path d="M0.55329602,23.9300529 C1.65988806,14.4318045 2.7203721,11.2042444 5.25631219,9.68268035 C6.54733624,8.89884432 8.2072243,8.52998031 10.6509484,8.02279229 L10.9275964,7.97668429 C13.2791045,7.51560427 16.1839086,6.91620025 19.8264407,5.76350021 C21.3941128,5.25631219 23.0078928,4.65690817 24.7138889,4.01139614 C27.941449,2.7664801 31.2612251,1.52156405 34.3504612,1.06048404 C36.1486733,0.82994403 38.1774254,0.691620025 40.5289335,0.691620025 C42.6499015,0.691620025 44.8169776,0.783836028 46.9379457,0.876052032 C49.0128058,0.968268035 51.1337738,1.06048404 53.2086339,1.06048404 C54.407442,1.06048404 57.8194341,2.30540008 59.6176461,2.95091211 C60.1248342,3.13534411 60.5859142,3.31977612 61.0931022,3.50420813 C63.3523943,4.33415216 65.4733624,5.11798818 66.8104944,5.4407442 C67.7787624,5.6712842 69.3003265,5.94793221 71.0063226,6.22458022 C75.1560427,6.91620025 80.8273269,7.88446828 82.348891,9.22160033 C83.686023,10.3743004 84.9770471,12.9102405 85.9914231,16.3222326 C86.7752591,19.0426047 87.2824471,22.1318408 87.3285551,24.2989169 L0.55329602,23.9300529 Z" id="Shape" fill="#FFD095"></path>
                                                            <path d="M40.5289335,1.15270004 C42.6499015,1.15270004 44.8169776,1.24491604 46.9379457,1.33713205 C49.0128058,1.42934805 51.1798818,1.52156405 53.2086339,1.52156405 C54.361334,1.52156405 57.7733261,2.7664801 59.4332141,3.41199212 C59.9404022,3.59642413 60.4014822,3.78085614 60.9086702,3.96528814 C63.1679623,4.79523217 65.3350383,5.6251762 66.6721704,5.90182421 C67.6865464,6.13236422 69.1620025,6.40901223 70.9141066,6.68566024 C74.7871787,7.33117226 80.5967869,8.2994403 82.072243,9.59046434 C84.700399,11.8958644 86.6830431,19.3653607 86.8674751,23.8378369 L1.06048404,23.5150808 C2.12096808,14.5701285 3.13534411,11.5270004 5.4868522,10.0976524 C6.68566024,9.35992434 8.3455483,8.99106032 10.7431644,8.52998031 L11.0659204,8.48387231 C13.4174285,8.02279229 16.3222326,7.42338827 20.0108727,6.27068823 C21.6246528,5.76350021 23.2384328,5.16409619 24.9444289,4.47247616 C28.125881,3.27366812 31.4456571,1.98264407 34.4426772,1.56767206 C36.1947813,1.24491604 38.2235334,1.15270004 40.5289335,1.15270004 L40.5289335,1.15270004 Z M40.5289335,0.230540008 C38.4079654,0.230540008 36.3331053,0.322756012 34.2582452,0.599404022 C29.5091211,1.24491604 24.2989169,3.87307214 19.6881167,5.30242019 C15.8611526,6.50122823 12.9102405,7.10063226 10.5126244,7.56171227 C8.16111629,8.02279229 6.36290423,8.4377643 4.97966418,9.26770833 C2.16707608,10.9737044 1.10659204,14.5701285 0,24.1144849 L0.230540008,24.3911329 L87.5129871,24.7138889 L87.7435272,24.4833489 C87.7435272,20.3336287 85.8069911,11.6192164 82.625539,8.85273632 C80.3201389,6.87009225 70.2685945,5.80960821 66.8566024,4.97966418 C65.2889303,4.61080017 62.4763422,3.50420813 59.7559701,2.48983209 C57.0355981,1.47545605 54.361334,0.55329602 53.2086339,0.55329602 C49.1050218,0.599404022 44.7708696,0.230540008 40.5289335,0.230540008 L40.5289335,0.230540008 Z" id="Shape" fill="#FFD291"></path>
                                                        </g>
                                                        <path d="M56.06733,65.4733624 C56.06733,65.4733624 50.3499378,68.7470305 45.7391376,68.5625985 C41.1283375,68.3320585 33.9815972,66.1649824 33.9815972,64.8278503 L33.9815972,54.269118 C33.9815972,54.269118 31.3534411,53.3930659 30.8923611,50.7649098 C30.4773891,48.1367537 30.8923611,41.7738495 30.8923611,41.7738495 C30.8923611,41.7738495 29.9240931,45.0014096 28.310313,42.6499015 C26.973181,40.7133655 24.2067009,31.1229011 25.0827529,29.7857691 C25.9588049,28.448637 27.157613,27.710909 27.157613,27.710909 L28.264205,32.9672212 L29.5552291,33.6127332 C29.5552291,33.6127332 28.909717,26.1432369 29.7857691,23.5150808 C30.6618211,20.8869248 30.6618211,17.3827166 32.1833852,16.6910966 C33.7049492,16.0455846 36.7941853,15.3539646 37.6702374,15.3539646 C38.5462894,15.3539646 36.3331053,13.8324005 36.3331053,13.8324005 C36.3331053,13.8324005 37.6702374,12.7258085 42.9265495,12.7258085 C48.1828617,12.7258085 54.591874,14.9389925 54.591874,14.9389925 C54.591874,14.9389925 55.929006,13.8324005 54.591874,12.7258085 C53.2547419,11.6192164 59.6637541,15.3539646 58.9721341,19.0887127 C58.3266221,22.8234608 59.0182421,24.3450249 59.0182421,24.3450249 C59.0182421,24.3450249 59.2948901,26.0971289 59.0182421,29.186365 L58.7415941,32.2756012 L60.2631582,31.1690091 C60.2631582,31.1690091 60.0326182,30.5234971 60.2631582,28.310313 C60.4936982,26.0971289 62.6607743,25.6821569 62.6607743,25.6821569 L64.4128783,27.434261 C64.4128783,27.434261 63.5368263,33.7971652 62.8913143,36.0103493 C62.2458022,38.2235334 62.8913143,40.2061774 62.4302342,41.8660655 C62.0152622,43.4798456 59.6176461,43.0648735 59.6176461,43.0648735 L59.0182421,40.5750415 C59.0182421,40.5750415 59.4332141,47.6756737 59.2487821,49.0128058 C59.0182421,50.3499378 59.2487821,51.2259898 58.1421901,52.1020419 C57.4505701,52.6553379 57.0355981,53.4852819 56.574518,54.0846859 C56.251762,54.45355 56.06733,54.730198 56.06733,54.730198 L56.06733,65.4733624 Z" id="Shape" stroke="none" fill="#FFFCF7" fill-rule="evenodd"></path>
                                                        <path d="M56.390086,52.9780939 C56.390086,52.9780939 52.1942579,55.329602 49.1511298,56.482302 C48.1367537,56.851166 47.2607017,57.1278141 46.7074057,57.1278141 L42.9726575,57.1278141 C40.7594735,57.1278141 33.9815972,54.269118 33.9815972,54.269118 C33.9815972,54.269118 33.3360852,64.8278503 34.4426772,63.0757463 C35.5492693,61.3236422 34.8576493,59.1104581 37.3013733,59.3409981 C39.6989894,59.5715381 43.8948176,58.8799181 46.2924337,58.6954861 C48.6900498,58.4649461 56.390086,52.9780939 56.390086,52.9780939 Z" id="Shape" stroke="#FFD095" stroke-width="2" fill="#FFD095" fill-rule="evenodd"></path>
                                                        <path d="M32.7366812,59.7098621 C32.7366812,59.7098621 33.0594372,65.1506063 33.7049492,65.5655784 C35.4570533,66.7182784 46.9379457,72.1129146 55.975114,66.0727664 L56.666734,60.6781302" id="Shape" stroke="#FFAB00" stroke-width="2" fill="none"></path>
                                                    </g>
                                                </g>
                                            </g>
                                        </g>
                                    </g>
                                </g>
                            </g>
                        </g>
                        <rect id="Rectangle-12-Copy" fill="#FFEFDD" x="306.286458" y="105.109375" width="77.984375" height="128.84375"></rect>
                        <rect id="Rectangle-19" fill="#FFEEDD" x="35.0364583" y="13.5625" width="361.666667" height="36.1666667"></rect>
                        <rect id="Rectangle-12-Copy" fill="#F27D00" x="306.286458" y="105.109375" width="77.984375" height="12.4322917"></rect>
                        <g id="Group-6" transform="translate(311.937500, 125.453125)" fill="#FFCC95">
                            <rect id="Combined-Shape" x="0" y="35.0364583" width="44.078125" height="19.2135417" rx="5"></rect>
                            <rect id="Combined-Shape" x="23.734375" y="15.8229167" width="44.078125" height="13.5625" rx="5"></rect>
                            <rect id="Combined-Shape" x="0" y="0" width="44.078125" height="13.5625" rx="5"></rect>
                        </g>
                    </g>
                </g>
            </g>
        </g>
    </g>
</svg>