<?xml version="1.0" encoding="UTF-8" standalone="no"?>
<svg width="434px" height="258px" viewBox="0 0 434 258" version="1.1" xmlns="http://www.w3.org/2000/svg" xmlns:xlink="http://www.w3.org/1999/xlink">
    <!-- Generator: Sketch 41.2 (35397) - http://www.bohemiancoding.com/sketch -->
    <title>written lesson illo</title>
    <desc>Created with Sketch.</desc>
    <defs>
        <rect id="path-1" x="0" y="0" width="29.6680991" height="29.6680991"></rect>
        <rect id="path-3" x="0.0605170181" y="0.0201723394" width="40.3446787" height="40.3446787"></rect>
    </defs>
    <g id="Offers-Page-changes" stroke="none" stroke-width="1" fill="none" fill-rule="evenodd">
        <g id="Student-Request-Form-(desktop)-Copy-10" transform="translate(-230.000000, -1209.000000)">
            <g id="What-type-of-lesson...?" transform="translate(230.000000, 1101.000000)">
                <g id="tab-content-:written" transform="translate(0.000000, 108.000000)">
                    <g id="written-lesson-illo">
                        <rect id="Rectangle-10" fill="#FFCC95" x="22.6041667" y="0" width="388.791667" height="253.166667" rx="12"></rect>
                        <rect id="Rectangle-10" fill="#FF9D00" x="0" y="241.864583" width="434" height="15.8229167" rx="3"></rect>
                        <rect id="Rectangle-6" fill="#FFFFFF" x="35.0364583" y="13.5625" width="361.666667" height="220.390625"></rect>
                        <path d="M111.799154,75.2064426 L109.991772,75.2064426 L107.950367,78.5223767 L106.009771,75.2064426 L104.079977,75.2064426 L107.08988,80.0993355 L107.08988,83.5520833 L108.742447,83.5520833 L108.742447,80.0813337 L111.799154,75.2064426 Z M113.926964,83.6708953 C115.662339,83.6708953 117.012475,82.446772 117.012475,80.6033863 C117.012475,78.7672013 115.67314,77.5646802 113.937765,77.5646802 C112.19879,77.5646802 110.859455,78.7780024 110.859455,80.6177877 C110.859455,82.4539727 112.19879,83.6708953 113.926964,83.6708953 Z M113.926964,82.288356 C113.080879,82.288356 112.443615,81.5862853 112.443615,80.6177877 C112.443615,79.6492902 113.084479,78.9652213 113.934165,78.9652213 C114.78385,78.9652213 115.421115,79.6528905 115.421115,80.6141874 C115.421115,81.5862853 114.773049,82.288356 113.926964,82.288356 Z M123.435517,77.6834922 L121.844156,77.6834922 L121.844156,80.9850247 C121.844156,81.7447013 121.440916,82.2523524 120.68844,82.2523524 C120.004371,82.2523524 119.665937,81.8419111 119.665937,81.1650429 L119.665937,77.6834922 L118.074577,77.6834922 L118.074577,81.2514516 C118.074577,82.6987974 118.758646,83.6708953 120.205991,83.6708953 C120.936865,83.6708953 121.592131,83.4224703 122.020574,82.8176093 L122.135786,83.5520833 L123.435517,83.5520833 L123.435517,77.6834922 Z M133.055679,82.5367811 C132.742447,82.3603633 132.652438,82.1551426 132.652438,81.6690936 L132.652438,79.6636916 C132.652438,78.2667509 131.759548,77.5646802 130.175389,77.5646802 C129.368907,77.5646802 128.450815,77.7482987 127.770346,78.2271469 L128.238393,79.260451 C128.692039,79.012026 129.3005,78.8464093 129.872958,78.8464093 C130.575029,78.8464093 131.08268,79.1056354 131.08268,79.7753029 L131.08268,80.0129268 C130.769448,79.9481203 130.333805,79.8869141 129.89096,79.8869141 C128.310401,79.8869141 127.363505,80.6645925 127.363505,81.8203089 C127.363505,82.983226 128.321202,83.6708953 129.455316,83.6708953 C130.106982,83.6708953 130.834255,83.4440725 131.226695,82.8464122 C131.338306,83.4224703 132.015174,83.6600942 132.87206,83.6600942 L133.055679,82.5367811 Z M131.08268,81.0714334 L131.08268,81.3882654 C131.08268,82.0435314 130.380609,82.4323705 129.757747,82.4323705 C129.314902,82.4323705 128.882858,82.237951 128.882858,81.7266995 C128.882858,81.2406505 129.271698,80.9598222 130.099781,80.9598222 C130.463418,80.9598222 130.841456,81.017428 131.08268,81.0714334 Z M134.467016,81.8347103 L133.790148,82.7492025 C134.485018,83.2964576 135.133083,83.6708953 136.19519,83.6708953 C137.548927,83.6708953 138.564229,83.0696347 138.564229,81.7987067 C138.564229,79.6132866 135.543525,80.3477605 135.543525,79.3180568 C135.543525,78.9652213 135.89276,78.7888035 136.350006,78.7888035 C136.771248,78.7888035 137.318503,78.9400187 137.808153,79.2352485 L138.37341,78.2955538 C137.844156,77.8671106 137.106082,77.5646802 136.231194,77.5646802 C135.010671,77.5646802 133.991768,78.1371379 133.991768,79.4260677 C133.991768,81.6222889 136.98367,80.8194081 136.98367,81.8635132 C136.98367,82.248752 136.576829,82.4035676 136.083579,82.4035676 C135.489519,82.4035676 134.974667,82.1803451 134.467016,81.8347103 Z M141.642535,81.0642327 L143.38151,83.5520833 L145.282502,83.5520833 L143.028675,80.3297587 L145.080881,77.6834922 L143.17629,77.6834922 L141.638935,79.6600913 L141.250095,79.6600913 L141.250095,74.8212038 L139.662336,75.1020321 L139.662336,83.5520833 L141.250095,83.5520833 L141.250095,81.0642327 L141.642535,81.0642327 Z M150.758649,82.8824159 L150.049377,81.9103179 C149.624535,82.2235495 149.116883,82.4251698 148.555227,82.4251698 C147.658737,82.4251698 147.061076,81.9067176 146.967467,81.0714334 L151.107884,81.0714334 C151.122286,80.93822 151.133087,80.7221983 151.133087,80.5385798 C151.133087,78.8428089 150.081781,77.5646802 148.353607,77.5646802 C146.70104,77.5646802 145.379707,78.7311977 145.379707,80.6537914 C145.379707,82.6231898 146.765847,83.6708953 148.436415,83.6708953 C149.322104,83.6708953 150.168189,83.3756656 150.758649,82.8824159 Z M146.985469,80.0597315 C147.09348,79.3180568 147.608332,78.8356082 148.335605,78.8356082 C149.102482,78.8356082 149.527325,79.3756626 149.602932,80.0597315 L146.985469,80.0597315 Z M156.558828,83.5520833 L157.858559,83.5520833 L157.858559,74.8212038 L156.270799,75.1020321 L156.270799,78.2919534 C155.835155,77.7771016 155.223094,77.5646802 154.546226,77.5646802 C152.738844,77.5646802 151.885558,79.0156263 151.885558,80.5925852 C151.885558,82.3927665 152.969267,83.6708953 154.571428,83.6708953 C155.331105,83.6708953 156.015174,83.3792659 156.443617,82.7636039 L156.558828,83.5520833 Z M154.917063,82.288356 C154.038575,82.288356 153.469717,81.6006868 153.469717,80.6141874 C153.469717,79.6528905 154.009772,78.9652213 154.902662,78.9652213 C155.809953,78.9652213 156.321204,79.6816934 156.321204,80.6033863 C156.321204,81.4674733 155.874759,82.288356 154.917063,82.288356 Z M160.213191,83.6708953 C160.756846,83.6708953 161.19609,83.2316511 161.19609,82.6879963 C161.19609,82.1443415 160.756846,81.7014969 160.213191,81.7014969 C159.665936,81.7014969 159.230292,82.1443415 159.230292,82.6879963 C159.230292,83.2316511 159.665936,83.6708953 160.213191,83.6708953 Z M160.213191,79.6960949 C160.756846,79.6960949 161.19609,79.2568506 161.19609,78.7095955 C161.19609,78.1659408 160.756846,77.7266965 160.213191,77.7266965 C159.665936,77.7266965 159.230292,78.1659408 159.230292,78.7095955 C159.230292,79.2568506 159.665936,79.6960949 160.213191,79.6960949 Z" id="You-asked:" fill="#F27D00"></path>
                        <path d="M111.799154,137.367901 L109.991772,137.367901 L107.950367,140.683835 L106.009771,137.367901 L104.079977,137.367901 L107.08988,142.260794 L107.08988,145.713542 L108.742447,145.713542 L108.742447,142.242792 L111.799154,137.367901 Z M113.926964,145.832354 C115.662339,145.832354 117.012475,144.60823 117.012475,142.764845 C117.012475,140.92866 115.67314,139.726139 113.937765,139.726139 C112.19879,139.726139 110.859455,140.939461 110.859455,142.779246 C110.859455,144.615431 112.19879,145.832354 113.926964,145.832354 Z M113.926964,144.449814 C113.080879,144.449814 112.443615,143.747744 112.443615,142.779246 C112.443615,141.810749 113.084479,141.12668 113.934165,141.12668 C114.78385,141.12668 115.421115,141.814349 115.421115,142.775646 C115.421115,143.747744 114.773049,144.449814 113.926964,144.449814 Z M123.435517,139.84495 L121.844156,139.84495 L121.844156,143.146483 C121.844156,143.90616 121.440916,144.413811 120.68844,144.413811 C120.004371,144.413811 119.665937,144.003369 119.665937,143.326501 L119.665937,139.84495 L118.074577,139.84495 L118.074577,143.41291 C118.074577,144.860256 118.758646,145.832354 120.205991,145.832354 C120.936865,145.832354 121.592131,145.583929 122.020574,144.979068 L122.135786,145.713542 L123.435517,145.713542 L123.435517,139.84495 Z M124.886458,145.713542 L126.474218,145.713542 L126.474218,143.254494 C126.474218,142.163584 126.719043,141.223889 127.809952,141.223889 C128.015173,141.223889 128.205992,141.256293 128.407613,141.317499 L128.656038,139.848551 C128.404012,139.765743 128.159188,139.726139 127.88916,139.726139 C127.125884,139.726139 126.650636,140.04297 126.330203,140.727039 L126.319402,140.723439 L126.189789,139.84495 L124.886458,139.84495 L124.886458,145.713542 Z M131.280697,141.177085 L132.277997,141.177085 L132.277997,143.664935 C132.277997,145.328303 133.628133,145.832354 134.913463,145.832354 L135.104282,144.550625 C134.333805,144.40661 133.862157,144.21219 133.862157,143.258094 L133.862157,141.177085 L135.233895,141.177085 L135.233895,139.84495 L133.862157,139.84495 L133.862157,137.789143 L132.277997,138.069972 L132.277997,139.84495 L131.280697,139.84495 L131.280697,141.177085 Z M141.545328,139.84495 L139.953967,139.84495 L139.953967,143.146483 C139.953967,143.90616 139.550727,144.413811 138.798251,144.413811 C138.114182,144.413811 137.775748,144.003369 137.775748,143.326501 L137.775748,139.84495 L136.184388,139.84495 L136.184388,143.41291 C136.184388,144.860256 136.868457,145.832354 138.315802,145.832354 C139.046676,145.832354 139.701942,145.583929 140.130385,144.979068 L140.245597,145.713542 L141.545328,145.713542 L141.545328,139.84495 Z M142.456215,141.177085 L143.453515,141.177085 L143.453515,143.664935 C143.453515,145.328303 144.803651,145.832354 146.08898,145.832354 L146.2798,144.550625 C145.509322,144.40661 145.037675,144.21219 145.037675,143.258094 L145.037675,141.177085 L146.409413,141.177085 L146.409413,139.84495 L145.037675,139.84495 L145.037675,137.789143 L143.453515,138.069972 L143.453515,139.84495 L142.456215,139.84495 L142.456215,141.177085 Z M150.117783,145.832354 C151.853158,145.832354 153.203294,144.60823 153.203294,142.764845 C153.203294,140.92866 151.863959,139.726139 150.128584,139.726139 C148.389609,139.726139 147.050274,140.939461 147.050274,142.779246 C147.050274,144.615431 148.389609,145.832354 150.117783,145.832354 Z M150.117783,144.449814 C149.271698,144.449814 148.634434,143.747744 148.634434,142.779246 C148.634434,141.810749 149.275298,141.12668 150.124984,141.12668 C150.974669,141.12668 151.611934,141.814349 151.611934,142.775646 C151.611934,143.747744 150.963868,144.449814 150.117783,144.449814 Z M154.326602,145.713542 L155.914362,145.713542 L155.914362,143.254494 C155.914362,142.163584 156.159187,141.223889 157.250096,141.223889 C157.455317,141.223889 157.646136,141.256293 157.847757,141.317499 L158.096182,139.848551 C157.844156,139.765743 157.599332,139.726139 157.329304,139.726139 C156.566028,139.726139 156.09078,140.04297 155.770347,140.727039 L155.759546,140.723439 L155.629933,139.84495 L154.326602,139.84495 L154.326602,145.713542 Z M161.491318,145.713542 L163.079078,145.713542 L163.079078,143.254494 C163.079078,142.163584 163.323903,141.223889 164.414813,141.223889 C164.620034,141.223889 164.810853,141.256293 165.012473,141.317499 L165.260898,139.848551 C165.008873,139.765743 164.764048,139.726139 164.494021,139.726139 C163.730744,139.726139 163.255496,140.04297 162.935064,140.727039 L162.924263,140.723439 L162.79465,139.84495 L161.491318,139.84495 L161.491318,145.713542 Z M170.949468,145.043874 L170.240197,144.071776 C169.815354,144.385008 169.307703,144.586628 168.746046,144.586628 C167.849556,144.586628 167.251895,144.068176 167.158286,143.232892 L171.298703,143.232892 C171.313105,143.099678 171.323906,142.883657 171.323906,142.700038 C171.323906,141.004267 170.2726,139.726139 168.544426,139.726139 C166.891859,139.726139 165.570526,140.892656 165.570526,142.81525 C165.570526,144.784648 166.956666,145.832354 168.627234,145.832354 C169.512923,145.832354 170.359008,145.537124 170.949468,145.043874 Z M167.176288,142.22119 C167.284299,141.479515 167.799151,140.997067 168.526424,140.997067 C169.293301,140.997067 169.718144,141.537121 169.793752,142.22119 L167.176288,142.22119 Z M172.652435,143.996169 L171.975567,144.910661 C172.670437,145.457916 173.318502,145.832354 174.380609,145.832354 C175.734345,145.832354 176.749647,145.231093 176.749647,143.960165 C176.749647,141.774745 173.728943,142.509219 173.728943,141.479515 C173.728943,141.12668 174.078178,140.950262 174.535424,140.950262 C174.956667,140.950262 175.503922,141.101477 175.993571,141.396707 L176.558828,140.457012 C176.029575,140.028569 175.291501,139.726139 174.416612,139.726139 C173.196089,139.726139 172.177187,140.298596 172.177187,141.587526 C172.177187,143.783747 175.169088,142.980866 175.169088,144.024972 C175.169088,144.41021 174.762247,144.565026 174.268998,144.565026 C173.674938,144.565026 173.160086,144.341803 172.652435,143.996169 Z M179.143885,139.84495 L177.844154,139.84495 L177.844154,148.298602 L179.431914,148.017774 L179.431914,145.10508 C179.871158,145.619932 180.479619,145.832354 181.156487,145.832354 C182.963869,145.832354 183.817155,144.381407 183.817155,142.804449 C183.817155,141.004267 182.733446,139.726139 181.131285,139.726139 C180.371608,139.726139 179.687539,140.017768 179.259096,140.63343 L179.143885,139.84495 Z M182.232996,142.782846 C182.232996,143.744143 181.692941,144.431813 180.803652,144.431813 C179.89276,144.431813 179.381509,143.71534 179.381509,142.793648 C179.381509,141.92956 179.827954,141.108678 180.78565,141.108678 C181.664139,141.108678 182.232996,141.796347 182.232996,142.782846 Z M187.705542,145.832354 C189.440917,145.832354 190.791053,144.60823 190.791053,142.764845 C190.791053,140.92866 189.451718,139.726139 187.716343,139.726139 C185.977368,139.726139 184.638033,140.939461 184.638033,142.779246 C184.638033,144.615431 185.977368,145.832354 187.705542,145.832354 Z M187.705542,144.449814 C186.859457,144.449814 186.222192,143.747744 186.222192,142.779246 C186.222192,141.810749 186.863057,141.12668 187.712743,141.12668 C188.562428,141.12668 189.199692,141.814349 189.199692,142.775646 C189.199692,143.747744 188.551627,144.449814 187.705542,144.449814 Z M197.322105,145.713542 L197.322105,142.141982 C197.322105,140.698236 196.616434,139.726139 195.18709,139.726139 C194.431014,139.726139 193.761347,140.003366 193.332904,140.593826 L193.214092,139.84495 L191.914361,139.84495 L191.914361,145.713542 L193.505721,145.713542 L193.505721,142.408409 C193.505721,141.659533 193.948566,141.141081 194.693841,141.141081 C195.370709,141.141081 195.730745,141.562323 195.730745,142.231991 L195.730745,145.713542 L197.322105,145.713542 Z M203.07548,145.713542 L204.375211,145.713542 L204.375211,136.982662 L202.787451,137.26349 L202.787451,140.453412 C202.351807,139.93856 201.739745,139.726139 201.062877,139.726139 C199.255495,139.726139 198.402209,141.177085 198.402209,142.754044 C198.402209,144.554225 199.485918,145.832354 201.08808,145.832354 C201.847756,145.832354 202.531825,145.540724 202.960268,144.925062 L203.07548,145.713542 Z M201.433715,144.449814 C200.555226,144.449814 199.986369,143.762145 199.986369,142.775646 C199.986369,141.814349 200.526423,141.12668 201.419313,141.12668 C202.326605,141.12668 202.837856,141.843152 202.837856,142.764845 C202.837856,143.628932 202.391411,144.449814 201.433715,144.449814 Z M210.884661,145.043874 L210.17539,144.071776 C209.750547,144.385008 209.242896,144.586628 208.68124,144.586628 C207.784749,144.586628 207.187089,144.068176 207.09348,143.232892 L211.233897,143.232892 C211.248298,143.099678 211.259099,142.883657 211.259099,142.700038 C211.259099,141.004267 210.207793,139.726139 208.479619,139.726139 C206.827053,139.726139 205.50572,140.892656 205.50572,142.81525 C205.50572,144.784648 206.891859,145.832354 208.562428,145.832354 C209.448117,145.832354 210.294202,145.537124 210.884661,145.043874 Z M207.111481,142.22119 C207.219492,141.479515 207.734344,140.997067 208.461617,140.997067 C209.228495,140.997067 209.653337,141.537121 209.728945,142.22119 L207.111481,142.22119 Z M216.684841,145.713542 L217.984572,145.713542 L217.984572,136.982662 L216.396812,137.26349 L216.396812,140.453412 C215.961168,139.93856 215.349106,139.726139 214.672238,139.726139 C212.864856,139.726139 212.01157,141.177085 212.01157,142.754044 C212.01157,144.554225 213.095279,145.832354 214.697441,145.832354 C215.457117,145.832354 216.141186,145.540724 216.569629,144.925062 L216.684841,145.713542 Z M215.043076,144.449814 C214.164587,144.449814 213.59573,143.762145 213.59573,142.775646 C213.59573,141.814349 214.135784,141.12668 215.028674,141.12668 C215.935966,141.12668 216.447217,141.843152 216.447217,142.764845 C216.447217,143.628932 216.000772,144.449814 215.043076,144.449814 Z M220.339204,145.832354 C220.882859,145.832354 221.322103,145.393109 221.322103,144.849455 C221.322103,144.3058 220.882859,143.862955 220.339204,143.862955 C219.791949,143.862955 219.356305,144.3058 219.356305,144.849455 C219.356305,145.393109 219.791949,145.832354 220.339204,145.832354 Z M220.339204,141.857553 C220.882859,141.857553 221.322103,141.418309 221.322103,140.871054 C221.322103,140.327399 220.882859,139.888155 220.339204,139.888155 C219.791949,139.888155 219.356305,140.327399 219.356305,140.871054 C219.356305,141.418309 219.791949,141.857553 220.339204,141.857553 Z" id="Your-tutor-responded" fill="#F27D00"></path>
                        <g id="video-chat" transform="translate(103.979167, 163.880208)">
                            <mask id="mask-2" fill="white">
                                <use xlink:href="#path-1"></use>
                            </mask>
                            <use id="Rectangle-12" fill="#FF9D00" xlink:href="#path-1"></use>
                            <g id="layeredCheggAvatar" mask="url(#mask-2)">
                                <g transform="translate(-5.933620, -7.911493)" id="Layer_1">
                                    <g>
                                        <g id="Group">
                                            <rect id="Rectangle-path" fill="#FF9D00" x="0.0605170181" y="0.0201723394" width="40.3446787" height="40.3446787"></rect>
                                            <g id="Clipped">
                                                <mask id="mask-4" fill="white">
                                                    <use xlink:href="#path-3"></use>
                                                </mask>
                                                <g id="SVGID_1_"></g>
                                                <g id="Group" mask="url(#mask-4)">
                                                    <g transform="translate(1.008617, 5.043085)">
                                                        <path d="M27.4545539,11.175476 C27.4545539,11.175476 27.3536922,10.0054803 27.4545539,9.13806973 C27.5554156,8.27065914 28.5035155,6.73756135 28.2211028,6.3542869 C27.93869,5.97101245 26.3854199,4.33705296 26.3047305,3.75205512 C26.2240412,3.16705728 25.7197327,1.14982334 25.4373199,0.766548896 C25.1549072,0.383274448 25.3364582,1.53309779 24.8523221,2.11809563 C24.368186,2.70309347 24.1866349,1.19016802 23.6016371,0.685859538 C23.0166392,0.181551054 22.4316414,0 22.4316414,0 C22.4316414,0 22.9157775,0.867410593 22.9157775,1.35154674 L22.9157775,1.83568288 C22.9157775,1.83568288 20.5152691,0.786721235 20.031133,0.786721235 C19.5469968,0.786721235 18.8006203,1.16999568 18.8006203,1.16999568 C18.8006203,1.16999568 18.2156224,0.887582932 17.7516586,0.968272289 C17.2675225,1.06913399 15.452012,2.11809563 15.1494269,2.60223178 C14.8670141,3.08636792 13.7978801,3.57050407 13.4146057,3.57050407 C13.0313312,3.57050407 11.6797845,3.38895301 11.6797845,3.38895301 C11.6797845,3.38895301 11.3973717,4.15550191 11.6797845,4.74049975 C11.9621972,5.32549759 12.1639206,6.17273585 12.1639206,6.17273585 C12.1639206,6.17273585 10.9535803,6.39463158 10.7316845,5.50704865 C10.5299611,4.63963805 11.1956483,7.22169749 11.1956483,7.22169749 C11.1956483,7.22169749 11.6797845,7.50411024 11.5789228,8.27065914 C11.4780611,9.03720803 11.5789228,9.62220588 11.6797845,10.2878931 C11.7806462,10.9535803 11.8815079,12.0428866 11.8815079,12.0428866 L13.2330546,15.5932183 L25.8205944,15.5932183 L27.4545539,11.175476 Z" id="Shape" stroke="#F27E2D" stroke-width="1" fill="#F27D00" fill-rule="evenodd"></path>
                                                        <g id="Group" stroke="none" stroke-width="1" fill="none" fill-rule="evenodd" transform="translate(0.000000, 26.022318)">
                                                            <path d="M0.242068072,10.4694441 C0.726204217,6.31394222 1.19016802,4.90187847 2.29964669,4.23619127 C2.86447219,3.8932615 3.59067641,3.73188278 4.65981039,3.50998705 L4.78084443,3.48981471 C5.80963374,3.28809132 7.08049112,3.0258509 8.67410593,2.52154242 C9.35996546,2.29964669 10.0659973,2.03740628 10.8123739,1.75499352 C12.2244377,1.21034036 13.6768461,0.665687199 15.0283928,0.463963805 C15.8151141,0.363102109 16.702697,0.30258509 17.7314863,0.30258509 C18.6594139,0.30258509 19.6075139,0.342929769 20.5354415,0.383274448 C21.4431967,0.423619127 22.3711244,0.463963805 23.2788796,0.463963805 C23.8033604,0.463963805 25.2961136,1.00861697 26.0828348,1.29102972 C26.3047305,1.37171908 26.5064539,1.45240843 26.7283497,1.53309779 C27.7167943,1.8961999 28.6447219,2.23912967 29.2297197,2.38033604 C29.6533389,2.48119774 30.3190261,2.60223178 31.0654026,2.72326581 C32.8809132,3.0258509 35.3621109,3.44947003 36.0277981,4.03446787 C36.6127959,4.53877636 37.1776214,5.64825502 37.6214129,7.14100813 C37.9643427,8.33117616 38.1862384,9.68272289 38.2064108,10.6308228 L0.242068072,10.4694441 Z" id="Shape" fill="#FFD095"></path>
                                                            <path d="M17.7314863,0.504308484 C18.6594139,0.504308484 19.6075139,0.544653163 20.5354415,0.584997842 C21.4431967,0.62534252 22.3912967,0.665687199 23.2788796,0.665687199 C23.7831881,0.665687199 25.2759412,1.21034036 26.0021454,1.49275311 C26.2240412,1.57344247 26.4257646,1.65413183 26.6476603,1.73482119 C27.6361049,2.09792329 28.5842049,2.4610254 29.1692027,2.58205944 C29.6129942,2.68292114 30.258509,2.80395517 31.0250579,2.92498921 C32.7195344,3.20740196 35.2612492,3.63102109 35.9067641,4.19584659 C37.0565874,5.20446356 37.923998,8.47238253 38.0046874,10.4290995 L0.463963805,10.2878931 C0.927927611,6.37445924 1.37171908,5.04308484 2.40050838,4.41774232 C2.92498921,4.09498489 3.65119342,3.93360618 4.70015507,3.73188278 L4.84136145,3.71171044 C5.87015075,3.50998705 7.14100813,3.24774664 8.75479528,2.74343815 C9.46082716,2.52154242 10.166859,2.25930201 10.9132356,1.95671692 C12.305127,1.43223609 13.7575354,0.867410593 15.0687375,0.685859538 C15.8352864,0.544653163 16.7228693,0.504308484 17.7314863,0.504308484 L17.7314863,0.504308484 Z M17.7314863,0.100861697 C16.8035587,0.100861697 15.8958034,0.141206376 14.9880481,0.262240412 C12.9102972,0.544653163 10.6308228,1.69447651 8.61358891,2.31981903 C6.93928474,2.84429985 5.64825502,3.10654026 4.59929337,3.30826366 C3.57050407,3.50998705 2.78378283,3.6915381 2.17861265,4.05464021 C0.94809995,4.80101677 0.484136145,6.37445924 0,10.5501335 L0.100861697,10.6711675 L38.2871001,10.8123739 L38.3879618,10.7115122 C38.3879618,8.89600166 37.5407236,5.08342952 36.1488321,3.87308916 C35.1402152,3.00567857 30.7426452,2.54171476 29.2498921,2.17861265 C28.5640325,2.01723394 27.3335198,1.53309779 26.1433518,1.08930633 C24.9531838,0.64551486 23.7831881,0.242068072 23.2788796,0.242068072 C21.4835414,0.262240412 19.5873415,0.100861697 17.7314863,0.100861697 L17.7314863,0.100861697 Z" id="Shape" fill="#FFD291"></path>
                                                        </g>
                                                        <path d="M24.5295647,28.6447219 C24.5295647,28.6447219 22.0281946,30.076958 20.0109606,29.9962686 C17.9937267,29.8954069 14.8670141,28.947307 14.8670141,28.3623091 L14.8670141,23.7428434 C14.8670141,23.7428434 13.7171908,23.359569 13.5154674,22.2097456 C13.3339163,21.0599223 13.5154674,18.2761395 13.5154674,18.2761395 C13.5154674,18.2761395 13.0918482,19.6882032 12.3858164,18.6594139 C11.8008185,17.8121757 10.5904782,13.6163291 10.9737526,13.0313312 C11.3570271,12.4463334 11.8815079,12.123576 11.8815079,12.123576 L12.365644,14.4232226 L12.9304695,14.7056354 C12.9304695,14.7056354 12.6480568,11.4377164 13.0313312,10.2878931 C13.4146057,9.13806973 13.4146057,7.60497194 14.0802929,7.30238685 C14.7459801,7.0199741 16.0975268,6.71738901 16.4808013,6.71738901 C16.8640757,6.71738901 15.8958034,6.05170181 15.8958034,6.05170181 C15.8958034,6.05170181 16.4808013,5.56756566 18.7804479,5.56756566 C21.0800946,5.56756566 23.8840498,6.53583795 23.8840498,6.53583795 C23.8840498,6.53583795 24.4690476,6.05170181 23.8840498,5.56756566 C23.299052,5.08342952 26.1030071,6.71738901 25.800422,8.3513485 C25.5180093,9.98530798 25.8205944,10.6509952 25.8205944,10.6509952 C25.8205944,10.6509952 25.9416284,11.4175441 25.8205944,12.7690908 L25.6995603,14.1206376 L26.3652475,13.6365014 C26.3652475,13.6365014 26.2643859,13.3540887 26.3652475,12.3858164 C26.4661092,11.4175441 27.4142092,11.235993 27.4142092,11.235993 L28.1807581,12.0025419 C28.1807581,12.0025419 27.7974836,14.7863248 27.5150709,15.754597 C27.2326581,16.7228693 27.5150709,17.5902799 27.3133475,18.3164841 C27.1317964,19.022516 26.0828348,18.840965 26.0828348,18.840965 L25.8205944,17.7516586 C25.8205944,17.7516586 26.0021454,20.8581989 25.9214561,21.4431967 C25.8205944,22.0281946 25.9214561,22.411469 25.4373199,22.7947435 C25.1347348,23.0368116 24.9531838,23.3999137 24.7514604,23.6621541 C24.610254,23.8235328 24.5295647,23.9445668 24.5295647,23.9445668 L24.5295647,28.6447219 Z" id="Shape" stroke="none" fill="#FFFCF7" fill-rule="evenodd"></path>
                                                        <path d="M24.670771,23.1780179 C24.670771,23.1780179 22.8350882,24.2068072 21.5037138,24.7111157 C21.0599223,24.8724944 20.6766478,24.9935285 20.4345798,24.9935285 L18.8006203,24.9935285 C17.832348,24.9935285 14.8670141,23.7428434 14.8670141,23.7428434 C14.8670141,23.7428434 14.5846014,28.3623091 15.0687375,27.5957602 C15.5528736,26.8292114 15.2502886,25.8609391 16.3194225,25.9618008 C17.3683842,26.0626625 19.2040671,25.7600774 20.2530287,25.679388 C21.3019904,25.5785263 24.670771,23.1780179 24.670771,23.1780179 Z" id="Shape" stroke="#FFD095" stroke-width="2" fill="#FFD095" fill-rule="evenodd"></path>
                                                        <path d="M14.3223609,26.1231795 C14.3223609,26.1231795 14.4635673,28.5035155 14.7459801,28.6850666 C15.512529,29.1893751 20.5354415,31.5495388 24.48922,28.9069623 L24.7918051,26.5467986" id="Shape" stroke="#FFAB00" stroke-width="2" fill="none"></path>
                                                    </g>
                                                </g>
                                            </g>
                                        </g>
                                    </g>
                                </g>
                            </g>
                        </g>
                        <path d="M106.804688,100.588542 L315.942097,100.588542" id="Line" stroke="#FFCC95" stroke-width="2" stroke-linecap="square"></path>
                        <path d="M136.458333,164 L316.458333,164" id="Line-Copy-4" stroke="#FFCC95" stroke-width="2" stroke-linecap="square"></path>
                        <path d="M106.804688,111.890625 L315.942097,111.890625" id="Line" stroke="#FFCC95" stroke-width="2" stroke-linecap="square"></path>
                        <path d="M136.458333,176 L316.458333,176" id="Line-Copy-5" stroke="#FFCC95" stroke-width="2" stroke-linecap="square"></path>
                        <path d="M106.804688,123.192708 L315.942097,123.192708" id="Line" stroke="#FFCC95" stroke-width="2" stroke-linecap="square"></path>
                        <path d="M136.458333,187 L316.458333,187" id="Line-Copy-8" stroke="#FFCC95" stroke-width="2" stroke-linecap="square"></path>
                        <path d="M136.458333,198 L316.458333,198" id="Line-Copy-4" stroke="#FFCC95" stroke-width="2" stroke-linecap="square"></path>
                        <path d="M136.458333,210 L316.458333,210" id="Line-Copy-5" stroke="#FFCC95" stroke-width="2" stroke-linecap="square"></path>
                        <path d="M136.458333,221 L316.458333,221" id="Line-Copy-8" stroke="#FFCC95" stroke-width="2" stroke-linecap="square"></path>
                        <path d="M136.458333,232 L316.458333,232" id="Line-Copy-4" stroke="#FFCC95" stroke-width="2" stroke-linecap="square"></path>
                        <rect id="Rectangle-19" fill="#FFEEDD" x="35.0364583" y="13.5625" width="361.666667" height="36.1666667"></rect>
                    </g>
                </g>
            </g>
        </g>
    </g>
</svg>